<?xml version="1.0" standalone="no"?>
<!DOCTYPE svg PUBLIC "-//W3C//DTD SVG 20010904//EN"
 "http://www.w3.org/TR/2001/REC-SVG-20010904/DTD/svg10.dtd">
<svg version="1.0" xmlns="http://www.w3.org/2000/svg"
 width="279.000000pt" height="62.000000pt" viewBox="0 0 279.000000 62.000000"
 preserveAspectRatio="xMidYMid meet">

<g transform="translate(0.000000,62.000000) scale(0.100000,-0.100000)"
fill="#000000" stroke="none">
<path d="M2308 563 c-16 -4 -18 -22 -18 -203 0 -220 5 -239 65 -243 24 -2 31
2 33 20 2 14 -3 23 -16 27 -28 9 -31 29 -31 225 0 97 -4 176 -8 177 -4 1 -16
0 -25 -3z"/>
<path fill="#00AFF5" d="M90 515 c0 -24 2 -25 65 -25 l65 0 0 -185 0 -185 30 0 30 0 0 185 0
185 65 0 c63 0 65 1 65 25 l0 25 -160 0 -160 0 0 -25z"/>
<path  d="M498 424 c-11 -3 -18 -15 -18 -29 0 -23 2 -23 55 -18 62 6 95 -12 95
-51 0 -19 -6 -21 -59 -21 -81 0 -115 -24 -119 -86 -5 -79 56 -110 184 -94 l56
7 -4 119 c-4 113 -6 121 -31 146 -21 22 -37 27 -84 29 -32 2 -66 0 -75 -2z
m132 -209 l0 -45 -49 0 c-51 0 -81 17 -81 47 0 26 32 42 83 43 l47 0 0 -45z"/>
<path d="M743 418 c2 -7 12 -39 21 -72 10 -32 31 -96 48 -142 27 -77 32 -84
57 -84 26 0 29 6 61 104 l34 105 33 -105 c33 -101 35 -105 61 -102 25 3 30 12
68 128 61 184 60 180 26 180 -27 0 -30 -4 -42 -57 -7 -32 -21 -87 -33 -123
l-20 -65 -18 52 c-9 29 -25 84 -35 122 -15 62 -20 71 -39 71 -17 0 -25 -8 -29
-27 -16 -69 -60 -203 -66 -203 -4 0 -23 52 -41 115 -32 113 -34 115 -62 115
-19 0 -28 -4 -24 -12z"/>
<path d="M1274 421 c-28 -12 -54 -49 -54 -77 0 -34 31 -65 90 -88 63 -25 80
-46 60 -71 -12 -15 -26 -17 -82 -12 -66 6 -68 5 -68 -17 0 -18 7 -25 31 -30
50 -10 97 -7 133 8 41 17 48 28 48 73 0 44 -19 63 -94 92 -62 25 -75 42 -51
67 13 13 29 15 69 11 47 -5 54 -3 59 15 4 11 5 22 2 25 -10 10 -122 13 -143 4z"/>
<path d="M2488 414 c-11 -3 -18 -15 -18 -29 0 -23 2 -23 55 -18 62 6 95 -12
95 -51 0 -19 -6 -21 -59 -21 -81 0 -115 -24 -119 -86 -5 -79 56 -110 184 -94
l56 7 -4 119 c-4 113 -6 121 -31 146 -21 22 -37 27 -84 29 -32 2 -66 0 -75 -2z
m132 -209 l0 -45 -46 0 c-56 0 -84 14 -84 42 0 31 29 47 83 48 l47 0 0 -45z"/>
<path fill="#00AFF5" d="M1635 387 c-40 -19 -59 -49 -79 -126 -9 -34 -16 -64 -16 -66 0 -2 11
7 25 20 13 14 35 25 48 25 23 0 67 -37 67 -57 0 -9 158 -23 271 -23 44 0 47 2
53 30 12 64 102 66 121 2 7 -24 15 -32 32 -32 18 0 23 5 23 28 0 47 -26 69
-168 138 l-137 67 -105 4 c-75 2 -114 0 -135 -10z m95 -42 c0 -38 -10 -42 -55
-25 -55 21 -40 60 23 60 30 0 32 -2 32 -35z m165 14 c45 -17 55 -25 55 -44 0
-23 -1 -23 -82 -18 -46 3 -86 8 -89 12 -4 3 -9 21 -12 39 -6 32 -6 32 33 32
22 0 64 -9 95 -21z"/>
<path fill="#00AFF5" d="M1582 214 c-41 -29 -19 -94 33 -94 23 0 55 32 55 55 0 38 -55 62 -88
39z"/>
<path fill="#00AFF5" d="M2043 219 c-31 -11 -40 -54 -18 -79 23 -26 57 -25 80 0 36 40 -10 99
-62 79z m12 -29 c-3 -5 -12 -10 -18 -10 -7 0 -6 4 3 10 19 12 23 12 15 0z"/>
</g>
</svg>
